<mxfile modified="2023-09-28T17:54:36.783Z" host="app.diagrams.net" agent="Mozilla/5.0 (Windows NT 10.0; Win64; x64) AppleWebKit/537.36 (KHTML, like Gecko) Chrome/117.0.0.0 Safari/537.36" etag="SwN2UvJDO62UIAkiAs2W" version="22.0.0" type="github">
  <diagram id="Ht1M8jgEwFfnCIfOTk4-" name="Page-1">
    <mxGraphModel dx="1196" dy="462" grid="1" gridSize="10" guides="1" tooltips="1" connect="1" arrows="1" fold="1" page="1" pageScale="1" pageWidth="1169" pageHeight="827" math="0" shadow="0">
      <root>
        <mxCell id="0" />
        <mxCell id="1" parent="0" />
        <mxCell id="ifcSdzMsUUNTkfPnYHxf-21" value="" style="rounded=0;whiteSpace=wrap;html=1;fillColor=#FF9900;fillStyle=hatch;" vertex="1" parent="1">
          <mxGeometry x="280" y="270" width="530" height="190" as="geometry" />
        </mxCell>
        <mxCell id="ifcSdzMsUUNTkfPnYHxf-15" value="Web&amp;nbsp; Scraping&lt;br&gt;&lt;br&gt;BeautifulSoup" style="text;html=1;strokeColor=none;fillColor=none;align=center;verticalAlign=middle;whiteSpace=wrap;rounded=0;rotation=-90;" vertex="1" parent="1">
          <mxGeometry x="499" y="240" width="120" height="30" as="geometry" />
        </mxCell>
        <mxCell id="UEzPUAAOIrF-is8g5C7q-74" value="AWS Cloud" style="points=[[0,0],[0.25,0],[0.5,0],[0.75,0],[1,0],[1,0.25],[1,0.5],[1,0.75],[1,1],[0.75,1],[0.5,1],[0.25,1],[0,1],[0,0.75],[0,0.5],[0,0.25]];outlineConnect=0;html=1;whiteSpace=wrap;fontSize=12;fontStyle=0;shape=mxgraph.aws4.group;grIcon=mxgraph.aws4.group_aws_cloud_alt;strokeColor=#d79b00;fillColor=none;verticalAlign=top;align=left;spacingLeft=30;dashed=0;labelBackgroundColor=#ffffff;container=0;pointerEvents=0;collapsible=0;recursiveResize=0;fillStyle=auto;" parent="1" vertex="1">
          <mxGeometry x="280" y="270" width="530" height="190" as="geometry" />
        </mxCell>
        <mxCell id="ifcSdzMsUUNTkfPnYHxf-4" style="edgeStyle=orthogonalEdgeStyle;rounded=0;orthogonalLoop=1;jettySize=auto;html=1;exitX=1;exitY=0.5;exitDx=0;exitDy=0;" edge="1" parent="1" source="ifcSdzMsUUNTkfPnYHxf-1" target="UEzPUAAOIrF-is8g5C7q-82">
          <mxGeometry relative="1" as="geometry" />
        </mxCell>
        <mxCell id="ifcSdzMsUUNTkfPnYHxf-1" value="" style="shape=image;html=1;verticalAlign=top;verticalLabelPosition=bottom;labelBackgroundColor=#ffffff;imageAspect=0;aspect=fixed;image=https://cdn2.iconfinder.com/data/icons/whcompare-servers-web-hosting/50/staging-site-128.png" vertex="1" parent="1">
          <mxGeometry x="80" y="290" width="128" height="128" as="geometry" />
        </mxCell>
        <mxCell id="UEzPUAAOIrF-is8g5C7q-97" style="edgeStyle=orthogonalEdgeStyle;rounded=0;orthogonalLoop=1;jettySize=auto;html=1;endArrow=open;endFill=0;strokeWidth=2;startArrow=open;startFill=0;exitX=0.5;exitY=1;exitDx=0;exitDy=0;" parent="1" source="ifcSdzMsUUNTkfPnYHxf-8" target="UEzPUAAOIrF-is8g5C7q-85" edge="1">
          <mxGeometry relative="1" as="geometry">
            <mxPoint x="649" y="229" as="sourcePoint" />
            <mxPoint x="713" y="-70" as="targetPoint" />
          </mxGeometry>
        </mxCell>
        <mxCell id="ifcSdzMsUUNTkfPnYHxf-5" style="edgeStyle=orthogonalEdgeStyle;rounded=0;orthogonalLoop=1;jettySize=auto;html=1;" edge="1" parent="1" source="UEzPUAAOIrF-is8g5C7q-82" target="UEzPUAAOIrF-is8g5C7q-85">
          <mxGeometry relative="1" as="geometry">
            <mxPoint x="485" y="350" as="targetPoint" />
          </mxGeometry>
        </mxCell>
        <mxCell id="UEzPUAAOIrF-is8g5C7q-82" value="Amazon Simple&lt;br&gt;Queue Service&lt;br&gt;" style="outlineConnect=0;fontColor=#232F3E;gradientColor=#F34482;gradientDirection=north;fillColor=#BC1356;strokeColor=#ffffff;dashed=0;verticalLabelPosition=bottom;verticalAlign=top;align=center;html=1;fontSize=12;fontStyle=0;aspect=fixed;shape=mxgraph.aws4.resourceIcon;resIcon=mxgraph.aws4.sqs;labelBackgroundColor=#ffffff;" parent="1" vertex="1">
          <mxGeometry x="355" y="315" width="78" height="78" as="geometry" />
        </mxCell>
        <mxCell id="ifcSdzMsUUNTkfPnYHxf-12" style="edgeStyle=orthogonalEdgeStyle;rounded=0;orthogonalLoop=1;jettySize=auto;html=1;" edge="1" parent="1" source="UEzPUAAOIrF-is8g5C7q-85" target="UEzPUAAOIrF-is8g5C7q-87">
          <mxGeometry relative="1" as="geometry" />
        </mxCell>
        <mxCell id="UEzPUAAOIrF-is8g5C7q-85" value="AWS Lambda" style="outlineConnect=0;fontColor=#232F3E;gradientColor=#F78E04;gradientDirection=north;fillColor=#D05C17;strokeColor=#ffffff;dashed=0;verticalLabelPosition=bottom;verticalAlign=top;align=center;html=1;fontSize=12;fontStyle=0;aspect=fixed;shape=mxgraph.aws4.resourceIcon;resIcon=mxgraph.aws4.lambda;labelBackgroundColor=#ffffff;spacingTop=6;" parent="1" vertex="1">
          <mxGeometry x="520" y="315" width="78" height="78" as="geometry" />
        </mxCell>
        <mxCell id="ifcSdzMsUUNTkfPnYHxf-20" style="edgeStyle=orthogonalEdgeStyle;rounded=0;orthogonalLoop=1;jettySize=auto;html=1;entryX=0.5;entryY=1;entryDx=0;entryDy=0;" edge="1" parent="1" source="UEzPUAAOIrF-is8g5C7q-87" target="ifcSdzMsUUNTkfPnYHxf-1">
          <mxGeometry relative="1" as="geometry">
            <mxPoint x="130" y="440" as="targetPoint" />
            <Array as="points">
              <mxPoint x="780" y="354" />
              <mxPoint x="780" y="490" />
              <mxPoint x="145" y="490" />
            </Array>
          </mxGeometry>
        </mxCell>
        <mxCell id="UEzPUAAOIrF-is8g5C7q-87" value="Amazon&lt;br&gt;DynamoDB" style="outlineConnect=0;fontColor=#232F3E;gradientColor=#4D72F3;gradientDirection=north;fillColor=#3334B9;strokeColor=#ffffff;dashed=0;verticalLabelPosition=bottom;verticalAlign=top;align=center;html=1;fontSize=12;fontStyle=0;aspect=fixed;shape=mxgraph.aws4.resourceIcon;resIcon=mxgraph.aws4.dynamodb;labelBackgroundColor=#ffffff;" parent="1" vertex="1">
          <mxGeometry x="670" y="315" width="78" height="78" as="geometry" />
        </mxCell>
        <mxCell id="ifcSdzMsUUNTkfPnYHxf-13" value="" style="group" vertex="1" connectable="0" parent="1">
          <mxGeometry x="495" y="40" width="128" height="158" as="geometry" />
        </mxCell>
        <mxCell id="ifcSdzMsUUNTkfPnYHxf-8" value="" style="shape=image;html=1;verticalAlign=top;verticalLabelPosition=bottom;labelBackgroundColor=#ffffff;imageAspect=0;aspect=fixed;image=https://cdn2.iconfinder.com/data/icons/whcompare-servers-web-hosting/50/staging-site-128.png" vertex="1" parent="ifcSdzMsUUNTkfPnYHxf-13">
          <mxGeometry y="30" width="128" height="128" as="geometry" />
        </mxCell>
        <mxCell id="ifcSdzMsUUNTkfPnYHxf-10" value="Job Website" style="text;strokeColor=none;align=center;fillColor=none;html=1;verticalAlign=middle;whiteSpace=wrap;rounded=0;" vertex="1" parent="ifcSdzMsUUNTkfPnYHxf-13">
          <mxGeometry x="21.5" width="85" height="30" as="geometry" />
        </mxCell>
        <mxCell id="ifcSdzMsUUNTkfPnYHxf-14" value="Fine-Tuned Job Search&lt;br&gt;http://jobsfor.us.to" style="text;strokeColor=none;align=center;fillColor=none;html=1;verticalAlign=middle;whiteSpace=wrap;rounded=0;" vertex="1" parent="1">
          <mxGeometry x="80" y="250" width="130" height="30" as="geometry" />
        </mxCell>
        <mxCell id="ifcSdzMsUUNTkfPnYHxf-23" value="" style="shape=image;verticalLabelPosition=bottom;labelBackgroundColor=default;verticalAlign=top;aspect=fixed;imageAspect=0;image=https://www.clipartkey.com/mpngs/m/115-1150417_flask-framework-logo.png;imageBorder=#FFFFFF;" vertex="1" parent="1">
          <mxGeometry x="179.9" y="380" width="30.1" height="40" as="geometry" />
        </mxCell>
      </root>
    </mxGraphModel>
  </diagram>
</mxfile>
